<svg width="408" height="268pt" viewBox="0 0 306 268" xmlns="http://www.w3.org/2000/svg"><path fill="#ebebeb" d="M132.06 0h6.71c31 .86 61.57 12.82 84.76 33.44 27.34 23.79 44.08 59.09 45.4 95.3 11.59 5.73 25.13 3.92 37.07.33-8.62 5.95-17.69 11.61-27.85 14.5-3.12.9-6.37 1.18-9.6 1.02-2.32 31.25-16.21 61.45-38.34 83.63-23.64 24.21-56.78 38.5-90.55 39.78h-9.22c-19.17-.88-38.22-5.48-55.36-14.16-28.09-13.95-50.88-38.13-63.23-66.95C.93 161.64-1.76 133 3.91 106.11c6-28.66 21.82-55.11 44.13-74.05C71.23 12.1 101.47.61 132.06 0z"/></svg>