<svg width="320pt" height="160" viewBox="0 0 320 120" xmlns="http://www.w3.org/2000/svg"><path fill="#90fb00" d="M124.32 3.77c25.71.12 51.42.08 77.12.06.11 19.46-.04 38.92-.04 58.37-1.47-.02-2.93-.04-4.4-.07-.53-.73-1.05-1.46-1.58-2.19-1.67.01-3.33.03-5 .05.34-5.67-1.03-11.22-1.38-16.85-.81 3.03-1.72 6.04-2.56 9.07-4.28-.02-8.56-.05-12.85-.05-.03.69-.1 2.06-.13 2.75-4.11-.04-8.22-.04-12.32-.03-.02 3.96 0 7.92-.02 11.88-3.41.79-3.33-2.57-3.53-4.92-.86-.89-1.71-1.78-2.56-2.66-4.27-.16-8.57-.07-12.74.95-.02-1.26-.03-2.53-.04-3.79-2-.01-4-.02-6-.01-.29 3.11-.48 6.23-.57 9.35-2.05-.01-4.1-.02-6.15-.04-.02-5.79-.01-11.58-.01-17.37-1.8-.03-3.61-.08-5.41-.19-.85-10-.2-20.05-.39-30.07.06-4.75-.33-9.54.56-14.24z"/><path d="M202.74 41.21c3.88-.18 7.77-.18 11.66-.07.14 6.9-.16 13.81.09 20.7.49.13 1.45.37 1.93.5.27-1.89-.69-4.78 2.12-4.89 0-4.27-.01-8.55-.02-12.82 2 0 4 .01 6.01.03-.02.87-.07 2.62-.09 3.49l1.88.2c.8.75 1.6 1.48 2.42 2.22-.03 2.03-.06 4.06-.08 6.1.42.06 1.26.17 1.68.23-.04-5.18-.14-10.35-.1-15.52 4.08-.09 8.17-.11 12.25.07-.01 11.02-.06 22.03.03 33.05 6.92.06 13.84-.1 20.76.1-.01 3.18-.02 6.36-.01 9.54 5.13.03 10.26-.09 15.38.09.03 1.43.06 2.86.08 4.29-25.98.08-51.96.03-77.93.03-.07-8.72.04-17.44.04-26.16l-4.96-.03c-.11-.61-.34-1.82-.46-2.42.53.73 1.05 1.46 1.58 2.19 1.47.03 2.93.05 4.4.07.34.01 1.01.02 1.35.02-.01-7 .02-14.01-.01-21.01zm-100.1 2c2.65-.06 5.31-.07 7.97-.07-.04 7.57-.01 15.14-.02 22.71 1.3-.01 2.6-.03 3.9-.05-.03-6.02-.05-12.05.02-18.07 2.94-.11 5.89-.11 8.82.17l.82.18c.48 13.47.08 26.98.19 40.47-27.69 0-55.38.05-83.08-.03l.06-3.74c7.98-.01 15.96.1 23.94-.07.11-1.63.2-3.27.25-4.91 2.25.01 4.5.02 6.75.01-.03-4.07-.03-8.13.05-12.2.51-.23 1.53-.69 2.04-.93 0-.9-.02-2.7-.03-3.6 3.06-.26 6.15-.25 9.18.26-.03 2.85-.05 5.7-.04 8.54 2.61.43 4.14-1.68 6.34-2.49.21-4.62-.43-9.29.52-13.86.82.03 2.45.08 3.27.11v-2.26c3.02-.03 6.05-.02 9.08-.01 0-3.39 0-6.78-.03-10.16zM17.99 95.28c1.85-.05 3.71-.09 5.57-.12 4.23 7.24 8.34 14.57 12.28 21.98-1.69.03-3.38.06-5.07.08-1.16-1.93-2.28-3.87-3.38-5.83-4.5-.02-8.99 0-13.48-.01-.95 1.92-1.94 3.82-2.89 5.74-1.75.03-3.51.05-5.26.05 3.56-7.58 8.43-14.44 12.23-21.89m-2.6 13.11c3.5.03 6.99.08 10.48.02-1.68-2.86-3.32-5.75-4.96-8.62-1.81 2.88-3.5 5.85-5.52 8.6zm20.96-13.26l4.93.06c3.42 5.86 6.26 12.02 9.6 17.92 2.68-6.13 6.03-11.96 9.43-17.7 1.56-.28 3.16-.26 4.73-.31-.94 3.86-3.47 7.03-5.22 10.52-2.12 3.67-3.85 7.57-6.22 11.08-2.08 1.15-4.56.42-6.66-.33-2.85-7.41-7.76-13.82-10.59-21.24zm41.64.29c2.04-.24 4.11-.28 6.17-.15 4.07 7.32 7.97 14.75 12.36 21.89-1.86.01-3.72.02-5.58.02-1.02-1.94-1.96-3.95-3.36-5.65-4.37-.24-8.78-.27-13.15.03-1.26 1.76-2.24 3.7-3.24 5.62-1.82.01-3.64.02-5.46.01 3.98-7.31 8.67-14.25 12.26-21.77m3.07 3.85c-1.42 3.15-3.15 6.15-4.98 9.08 3.3.08 6.59.07 9.88.01-1.69-3-3.35-6.01-4.9-9.09zm18.22-4.17c1.22.05 2.45.09 3.67.15 6.07 5.59 12.55 10.71 18.72 16.19.06-5.33.06-10.66.02-16 1.6-.1 3.21-.23 4.82-.38 0 7.41.11 14.81-.07 22.21-1.47-.05-2.94-.09-4.41-.14-6.22-5.11-12.25-10.46-18.41-15.63-.15 5.18-.07 10.38-.06 15.57-1.44.06-2.88.11-4.31.16.02-7.37-.02-14.75.03-22.13zm35.24 2.35c7.19-4.05 16.03-3.45 23.63-.9-.59 1.06-1.16 2.12-1.72 3.18-5.28-1.46-11.04-2.78-16.34-.67-3.21 1.12-6.04 4.31-5.43 7.89.34 2.89 2.73 4.96 5.11 6.33 4.32 2.03 9.27 1.52 13.73.25.01-1.67.02-3.34.02-5-2.06-.04-4.11-.06-6.16-.07-.04-1.03-.08-2.05-.11-3.07 3.52-.02 7.04-.02 10.56.02.02 3.58.02 7.17-.01 10.76-5.88 1.4-12.12 2.97-18.07 1.02-4.87-1.16-10.23-4.72-10.34-10.22-.61-3.93 2.14-7.35 5.13-9.52zm36.54-.31c1.11-2.98 4.63-1.82 7.05-1.88 3.74 7.37 8.73 14.14 11.68 21.88-1.64.03-3.28.05-4.92.06-1.07-1.78-2.07-3.61-2.9-5.52-4.48-.3-9-.41-13.48-.08-1.33 1.71-2.3 3.66-3.31 5.57-1.77.01-3.54.01-5.3-.01 3.42-6.84 7.57-13.28 11.18-20.02m3.82 2.92c-1.63 2.8-3.13 5.67-4.93 8.36 3.33-.01 6.67-.01 10.01-.1-1.7-2.74-2.93-5.81-5.08-8.26zm17.67-4.66c5.63-.16 11.99-1.2 17.01 1.97 2.24 1.31 2.29 3.95 2.09 6.22-1.59 1.46-3.36 2.68-5.38 3.47 3.71 2.57 6.23 6.37 9.14 9.73.07-7.21-.02-14.42.05-21.63 6.19.16 12.51-.51 18.61.8 5.02 1.11 10.42 5.38 9.6 11.07-.11 5.81-6.19 8.84-11.19 9.69-5.88.84-11.89.56-17.8.17-1.6.11-3.2.25-4.78.41-3.1-4.04-6.36-10.05-12.19-9.77.02 3.23.03 6.45.03 9.68-1.71-.02-3.42-.06-5.13-.09-.09-7.24 0-14.48-.06-21.72m5.15 2.8c.01 2.1.02 4.21.01 6.31 3.1.2 9.67.28 8.49-4.43-2.43-1.87-5.6-1.79-8.5-1.88m21.98.36c.03 5.18.02 10.36.02 15.55 5.99.12 12.8.35 17.5-4.04.4-1.4.83-2.79 1.28-4.18-.74-1.63-1.16-3.6-2.78-4.62-4.59-3.44-10.64-2.64-16.02-2.71zm39.72-3.42c6.35.03 12.7-.01 19.05.03.01 1.05.01 2.1.03 3.15-4.93-.07-9.86-.13-14.78.07-.04 1.76-.09 3.53-.13 5.29 4.64.72 9.35.36 14.03.43 0 .8.01 2.41.01 3.21-4.66 0-9.32-.03-13.97.04.03 3.3.04 6.61.03 9.91-1-.03-3-.11-4-.15-.74-7.23-.1-14.67-.27-21.98zm21.85-.11c6.57-.9 9.49 6.38 14.72 8.86 3.97-2.49 7.26-5.94 11.09-8.65 1.55-.06 3.1-.11 4.66-.15.01 7.38-.01 14.75.01 22.12-1.7-.02-3.39-.05-5.09-.09-.09-5.43.06-10.87-.14-16.3-3.33 3.13-6.71 6.21-10.42 8.88-3.62-2.51-6.24-6.4-10.41-8.07-.05 5.18-.01 10.37-.01 15.55-1.48.01-2.96.01-4.43.01.02-7.39-.02-14.78.02-22.16z" fill="#636362"/><path fill="#0683b8" d="M186.48 52.21c.84-3.03 1.75-6.04 2.56-9.07.35 5.63 1.72 11.18 1.38 16.85 1.67-.02 3.33-.04 5-.05.12.6.35 1.81.46 2.42l4.96.03c0 8.72-.11 17.44-.04 26.16-25.49.01-50.97.01-76.46 0-.11-13.49.29-27-.19-40.47 1.8.11 3.61.16 5.41.19 0 5.79-.01 11.58.01 17.37 2.05.02 4.1.03 6.15.04.09-3.12.28-6.24.57-9.35 2-.01 4 0 6 .01.01 1.26.02 2.53.04 3.79 4.17-1.02 8.47-1.11 12.74-.95.85.88 1.7 1.77 2.56 2.66.2 2.35.12 5.71 3.53 4.92.02-3.96 0-7.92.02-11.88 4.1-.01 8.21-.01 12.32.03.03-.69.1-2.06.13-2.75 4.29 0 8.57.03 12.85.05z"/></svg>