<svg width="41pt" height="31pt" viewBox="0 0 41 31" xmlns="http://www.w3.org/2000/svg"><g fill="#333"><path d="M7.47 2.46C8.78.63 12.15 3.79 9.95 5.05 8.46 6.98 5.09 3.93 7.47 2.46zm23.73-.21c2.13-1.7 4.71 2.74 1.76 3.18-1.89 1.07-3.65-1.89-1.76-3.18z"/><path d="M4.49 6.44c2.73-1.03 5.73-.33 8.56-.25.26 3.27.35 6.55.09 9.82-2.42-1.88-.8-5.35-2.19-7.8-.77 6.14.5 12.42-.89 18.51-1.72-3.86-.06-8.23-1.71-12.1-.33 3.95-.12 7.94-.69 11.87-2.4-5.75-.26-12.22-1.31-18.26-1.43 2.41.13 5.78-2.18 7.7-.08-3.14-.66-6.44.32-9.49zm23.45-.28c2.85-.05 5.83-.7 8.59.3.92 3.11.4 6.42.29 9.6-2.26-2.05-.95-5.41-2.15-7.96-.72 6.15.34 12.39-.75 18.51-1.67-3.8-.75-8-1.28-11.99-1.75 3.81.29 8.28-1.9 11.94-.97-6.08 0-12.25-.7-18.35-1.35 2.49.01 5.77-2.12 7.89-.38-3.3-.18-6.63.02-9.94zm-8.78.96c1.45-2.18 4.88 1.3 2.48 2.6-1.43 1.74-4.51-1.32-2.48-2.6z"/><path d="M16.25 10.98c2.74-.75 5.76-.79 8.49.03.68 3.12.36 6.34.24 9.5-2.35-1.94-.88-5.39-2.15-7.88-.69 5.4.01 10.85-.4 16.26-.3.52-.89 1.57-1.19 2.09-.4-3.94-.07-7.91-.41-11.85-1.61 3.67-.49 7.8-1.01 11.66-.33-.47-.99-1.4-1.32-1.87-.37-5.42.28-10.88-.38-16.3-.72 2.4-.92 4.91-.79 7.41l-1.43-.23c0-2.94-.26-5.92.35-8.82z"/></g></svg>